<?xml version="1.0" encoding="UTF-8" standalone="no"?>
<!-- Created with Inkscape (http://www.inkscape.org/) -->

<svg
   width="50.815189mm"
   height="56.88821mm"
   viewBox="0 0 50.815189 56.88821"
   version="1.1"
   id="svg1"
   inkscape:version="1.3.2 (1:1.3.2+202311252150+091e20ef0f)"
   sodipodi:docname="logo.svg"
   xmlns:inkscape="http://www.inkscape.org/namespaces/inkscape"
   xmlns:sodipodi="http://sodipodi.sourceforge.net/DTD/sodipodi-0.dtd"
   xmlns="http://www.w3.org/2000/svg"
   xmlns:svg="http://www.w3.org/2000/svg">
  <sodipodi:namedview
     id="namedview1"
     pagecolor="#ffffff"
     bordercolor="#666666"
     borderopacity="1.0"
     inkscape:showpageshadow="2"
     inkscape:pageopacity="0.0"
     inkscape:pagecheckerboard="0"
     inkscape:deskcolor="#d1d1d1"
     inkscape:document-units="mm"
     inkscape:zoom="5.8810094"
     inkscape:cx="89.780507"
     inkscape:cy="137.30636"
     inkscape:window-width="3440"
     inkscape:window-height="1367"
     inkscape:window-x="0"
     inkscape:window-y="0"
     inkscape:window-maximized="1"
     inkscape:current-layer="layer1" />
  <defs
     id="defs1" />
  <g
     inkscape:label="Capa 1"
     inkscape:groupmode="layer"
     id="layer1"
     transform="translate(-76.464582,-85.725001)">
    <path
       id="path101"
       style="color:#000000;display:inline;fill:#0082c4;-inkscape-stroke:none"
       d="m 101.26985,85.73429 c -4.247354,0.13406 -8.731822,1.85579 -11.167971,5.49414 -0.845874,1.26597 -1.428011,2.70538 -1.708985,4.20118 -3.407397,0.37082 -6.936537,1.64702 -9.097063,4.44181 -2.562901,3.13242 -3.360007,7.4595 -2.49604,11.37024 0.505537,2.53276 1.459345,5.02094 3.089197,7.04927 1.641955,-0.85281 3.28373,-1.70596 4.925781,-2.55859 -1.78123,-1.16685 -2.625792,-3.24519 -3.04015,-5.2526 -0.542195,-2.46557 -0.336386,-5.14949 1.237416,-7.2142 1.740571,-2.35458 4.813458,-3.1828 7.61914,-3.13867 0.835287,0 1.670573,0 2.50586,0 0.02678,-2.05836 -0.280177,-4.37016 1.07011,-6.1149 1.576271,-2.11632 4.307876,-3.04633 6.799035,-3.22885 2.50079,-0.15349 5.03238,0.348 7.11523,1.82422 1.6569,1.13218 2.58921,3.1257 2.48828,5.11953 0,0.8 0,1.6 0,2.4 2.79301,-0.0217 5.83017,-0.16795 8.27181,1.4327 2.46664,1.50941 3.64886,4.55122 3.3173,7.36251 -0.23492,2.17932 -0.81225,4.51973 -2.41724,6.10909 -0.48072,0.38581 -1.20638,0.79757 -0.22448,1.02575 1.43349,0.74543 2.86773,1.48944 4.30066,2.23597 2.28999,-2.93289 3.37283,-6.69962 3.42203,-10.38905 -0.01,-4.63255 -2.63989,-9.39421 -7.01904,-11.21386 -1.55366,-0.68297 -3.22622,-1.06244 -4.9069,-1.26037 -0.61436,-3.50941 -3.03656,-6.58758 -6.25738,-8.08956 -2.41561,-1.19699 -5.14198,-1.69063 -7.8266,-1.60576 z"
       inkscape:export-filename="./logo11.png"
       inkscape:export-xdpi="100"
       inkscape:export-ydpi="100" />
    <path
       style="display:inline;fill:#0082c4;fill-opacity:1;stroke:none;stroke-width:0.264583;stroke-linecap:butt;stroke-linejoin:miter;stroke-dasharray:none;stroke-opacity:1"
       d="m 126.87336,117.61321 v 15 l -25,10 -24.999998,-10 v -15 l 24.999998,10 z"
       id="path105"
       sodipodi:nodetypes="ccccccc" />
    <path
       id="path110"
       style="color:#000000;fill:#0082c4;-inkscape-stroke:none"
       d="M 91.872944 102.61338 C 91.872944 105.73837 93.156311 108.33562 94.869143 110.21498 C 95.633165 111.05328 96.469767 111.77121 97.328942 112.4195 C 96.507883 113.00163 95.704757 113.63595 94.961127 114.36925 C 93.24848 116.05811 91.872944 118.46136 91.872944 121.36314 L 96.873155 121.36314 C 96.873155 119.88993 97.372694 119.01227 98.472541 117.92769 C 99.309022 117.10283 100.51237 116.27887 101.87388 115.41053 C 103.23486 116.27888 104.43719 117.10282 105.27368 117.92769 C 106.37353 119.01227 106.87306 119.88993 106.87306 121.36314 L 111.87327 121.36314 C 111.87327 118.46136 110.49774 116.05811 108.78509 114.36925 C 108.04151 113.636 107.23889 113.0016 106.41831 112.4195 C 107.27694 111.77127 108.11315 111.05317 108.87707 110.21498 C 110.58991 108.33562 111.87327 105.73837 111.87327 102.61338 L 106.87306 102.61338 C 106.87306 104.48837 106.28135 105.64116 105.18169 106.84774 C 104.35157 107.75857 103.19037 108.62305 101.87388 109.49048 C 100.55685 108.62305 99.39465 107.75857 98.564525 106.84774 C 97.464863 105.64116 96.873155 104.48837 96.873155 102.61338 L 91.872944 102.61338 z " />
  </g>
</svg>
