<?xml version="1.0" encoding="utf-8"?>
<!-- Generator: Adobe Illustrator 28.4.1, SVG Export Plug-In . SVG Version: 6.00 Build 0)  -->
<svg version="1.1" id="Capa_1" xmlns="http://www.w3.org/2000/svg" xmlns:xlink="http://www.w3.org/1999/xlink" x="0px" y="0px"
	 viewBox="0 0 31.1 36.3" style="enable-background:new 0 0 31.1 36.3;" xml:space="preserve">
<style type="text/css">
	.st0{fill:#ECEFF1;}
	.st1{fill:#263238;}
	.st2{fill:#212121;}
	.st3{fill:#FFC107;}
	.st4{fill:#634703;}
	.st5{fill:#455A64;}
</style>
<polygon class="st0" points="11.2,10.3 11.3,12.6 9.7,15.6 7.2,20.5 6.7,24.6 8.5,30.4 12.6,32.7 18.8,32.7 24.6,28.3 27.2,21.4 
	21.2,14.1 19.5,10 "/>
<path class="st1" d="M25.4,16c-1.6-2.3-2.9-3.7-3.6-6.6s0.2-2.1-0.4-4.6c-0.3-1.3-0.8-2.2-1.3-2.9c-0.6-0.7-1.3-1.1-1.7-1.2
	c-0.9-0.5-3-1.3-5.6,0.1c-2.7,1.4-2.4,4.4-1.9,10.5c0,0.4-0.1,0.9-0.3,1.3c-0.4,0.9-1.1,1.7-1.7,2.4c-0.7,1-1.4,2-1.9,3.1
	c-1.2,2.3-2.3,5.2-2,6.3c0.5-0.1,6.8,9.5,6.8,9.7c0.4-0.1,2.1-0.1,3.6-0.1c2.1-0.1,3.3-0.2,5,0.2c0-0.3-0.1-0.6-0.1-0.9
	c0-0.6,0.1-1.1,0.2-1.8c0.1-0.5,0.2-1,0.3-1.6c-1,0.9-2.8,1.9-4.5,2.2c-1.5,0.3-4-0.2-5.2-1.7c0.1,0,0.3,0,0.4-0.1
	c0.3-0.1,0.6-0.2,0.7-0.4c0.3-0.5,0.1-1-0.1-1.3s-1.7-1.4-2.4-2C9,26,8.6,25.7,8.2,25.3c0,0-0.6-0.6-0.8-0.8C7.2,24.3,7.1,24.1,7,24
	c-0.2-0.5-0.3-1.1-0.2-1.9c0.1-1.1,0.5-2,1-3c0.2-0.4,0.7-1.2,0.7-1.2s-1.7,4.2-0.8,5.5c0,0,0.1-1.3,0.5-2.6
	c0.3-0.9,0.8-2.2,1.4-2.9s2.1-3.3,2.2-4.9c0-0.7,0.1-1.4,0.1-1.9c-0.4-0.4,6.6-1.4,7-0.3c0.1,0.4,1.5,4,2.3,5.9
	c0.4,0.9,0.9,1.7,1.2,2.7c0.3,1.1,0.5,2.6,0.5,4.1c0,0.3,0,0.8-0.1,1.3c0.2,0,4.1-4.2-0.5-7.7c0,0,2.8,1.3,2.9,3.9
	c0.1,2.1-0.8,3.8-1,4.1c0.1,0,2.1,0.9,2.2,0.9c0.4,0,1.2-0.3,1.2-0.3c0.1-0.3,0.4-1.1,0.4-1.4C28.7,22,27,18.3,25.4,16z"/>
<g>
	<ellipse class="st0" cx="12.7" cy="7.4" rx="1.3" ry="2"/>
	<ellipse class="st0" cx="17.2" cy="7.3" rx="1.7" ry="2.3"/>
</g>
<g>
	<ellipse transform="matrix(0.9921 -0.1254 0.1254 0.9921 -0.8536 1.6586)" class="st2" cx="12.7" cy="7.6" rx="0.7" ry="1.2"/>
	<ellipse class="st2" cx="17.1" cy="7.7" rx="1" ry="1.3"/>
</g>
<g>
	<path class="st3" d="M30.4,29.7c-0.4-0.2-1.1-0.5-1.7-1.4c-0.3-0.5-0.2-1.9-0.7-2.5c-0.3-0.4-0.7-0.2-0.8-0.2c-0.9,0.2-3,1.6-4.4,0
		c-0.2-0.2-0.5-0.5-1-0.5s-0.7,0.2-0.9,0.6s-0.2,0.7-0.2,1.7c0,0.8,0,1.7-0.1,2.4c-0.2,1.7-0.5,2.7-0.5,3.7c0,1.1,0.3,1.8,0.7,2.1
		c0.3,0.3,0.8,0.5,1.9,0.5c1.1,0,1.8-0.4,2.5-1.1c0.5-0.5,0.9-0.7,2.3-1.7c1.1-0.7,2.8-1.6,3.1-1.9c0.2-0.2,0.5-0.3,0.5-0.9
		C31.1,30,30.7,29.8,30.4,29.7z"/>
	<path class="st3" d="M10.3,30c-1-1.6-1.1-1.9-1.8-2.9c-0.6-1-1.9-2.9-2.7-2.9c-0.6,0-0.9,0.3-1.3,0.7c-0.4,0.4-0.8,1.3-1.5,1.8
		c-0.6,0.5-2.3,0.4-2.7,1s0.4,1.5,0.4,3c0,0.6-0.5,1-0.6,1.4c-0.1,0.5-0.2,0.8,0,1.2c0.4,0.6,0.9,0.8,4.3,1.5
		c1.8,0.4,3.5,1.4,4.6,1.5s3,0,3-2.7C12.1,32,11.2,31.6,10.3,30z"/>
	<path class="st3" d="M12.2,11.9c-0.6-0.4-1.1-0.8-1.1-1.4s0.4-0.8,1-1.3c0.1-0.1,1.2-1.1,2.3-1.1s2.4,0.7,2.9,0.9
		c0.9,0.2,1.8,0.4,1.7,1.1c-0.1,1-0.2,1.2-1.2,1.7c-0.7,0.2-2,1.3-2.9,1.3c-0.4,0-1,0-1.4-0.1C13.2,12.9,12.7,12.4,12.2,11.9z"/>
</g>
<g>
	<path class="st4" d="M12,11.1c0.2,0.2,0.5,0.4,0.8,0.5c0.2,0.1,0.5,0.2,0.5,0.2c0.4,0,0.7,0,0.9,0c0.5,0,1.2-0.2,1.9-0.6
		c0.7-0.3,0.8-0.5,1.3-0.7c0.5-0.3,1-0.6,0.8-0.7s-0.4,0-1.1,0.4c-0.6,0.4-1.1,0.6-1.7,0.9c-0.3,0.1-0.7,0.3-1,0.3s-0.6,0-0.9,0
		s-0.5-0.1-0.8-0.2c-0.2-0.1-0.3-0.2-0.4-0.2c-0.2-0.1-0.6-0.5-0.8-0.6c0,0-0.2,0-0.1,0.1C11.7,10.8,11.8,10.9,12,11.1z"/>
	<path class="st4" d="M15,8.9c0.1,0.2,0.3,0.2,0.4,0.3c0.1,0.1,0.2,0.1,0.2,0.1c0.1-0.1,0-0.3-0.1-0.3C15.5,8.8,15,8.8,15,8.9z"/>
	<path class="st4" d="M13.4,9.1c0,0.1,0.2,0.2,0.2,0.1C13.7,9.1,13.8,9,13.9,9c0.2-0.1,0.1-0.2-0.2-0.2C13.5,8.9,13.5,9,13.4,9.1z"
		/>
</g>
<path class="st5" d="M23.1,26.8c0,0.1,0,0.2,0,0.3c0.2,0.4,0.7,0.5,1.1,0.5c0.6,0,1.2-0.4,1.5-0.8c0-0.1,0.1-0.2,0.2-0.3
	c0.2-0.3,0.3-0.5,0.4-0.6c0,0-0.1-0.1-0.1-0.2c-0.1-0.2-0.4-0.4-0.8-0.5c-0.3-0.1-0.8-0.2-1-0.2c-0.9-0.1-1.4,0.2-1.7,0.5
	c0,0,0.1,0,0.1,0.1c0.2,0.2,0.3,0.4,0.3,0.7C23.2,26.5,23.1,26.6,23.1,26.8z"/>
</svg>
