<?xml version="1.0" encoding="UTF-8" standalone="no"?>
<svg
   id="_0290_note_taking_1"
   viewBox="0 0 500 500"
   data-imageid="note-taking-1-88"
   imageName="Note Taking 1"
   class="illustrations_image"
   style="width: 178px;"
   version="1.1"
   sodipodi:docname="mention.svg"
   inkscape:version="1.3.2 (091e20e, 2023-11-25, custom)"
   xmlns:inkscape="http://www.inkscape.org/namespaces/inkscape"
   xmlns:sodipodi="http://sodipodi.sourceforge.net/DTD/sodipodi-0.dtd"
   xmlns:xlink="http://www.w3.org/1999/xlink"
   xmlns="http://www.w3.org/2000/svg"
   xmlns:svg="http://www.w3.org/2000/svg">
  <sodipodi:namedview
     id="namedview29"
     pagecolor="#ffffff"
     bordercolor="#000000"
     borderopacity="0.25"
     inkscape:showpageshadow="2"
     inkscape:pageopacity="0.0"
     inkscape:pagecheckerboard="0"
     inkscape:deskcolor="#d1d1d1"
     inkscape:zoom="1.6588725"
     inkscape:cx="199.23171"
     inkscape:cy="207.67117"
     inkscape:window-width="2560"
     inkscape:window-height="1369"
     inkscape:window-x="-8"
     inkscape:window-y="-8"
     inkscape:window-maximized="1"
     inkscape:current-layer="_0290_note_taking_1" />
  <defs
     id="defs7">
    <style
       id="style1">.cls-1_note-taking-1-88{fill:url(#linear-gradient);}.cls-1_note-taking-1-88,.cls-2_note-taking-1-88,.cls-3_note-taking-1-88,.cls-4_note-taking-1-88,.cls-5_note-taking-1-88,.cls-6_note-taking-1-88,.cls-7_note-taking-1-88,.cls-8_note-taking-1-88,.cls-9_note-taking-1-88,.cls-10_note-taking-1-88,.cls-11_note-taking-1-88,.cls-12_note-taking-1-88,.cls-13_note-taking-1-88,.cls-14_note-taking-1-88,.cls-15_note-taking-1-88,.cls-16_note-taking-1-88,.cls-17_note-taking-1-88,.cls-18_note-taking-1-88,.cls-19_note-taking-1-88{stroke-width:0px;}.cls-2_note-taking-1-88{fill:url(#linear-gradient-11-note-taking-1-88);}.cls-3_note-taking-1-88{fill:url(#linear-gradient-12-note-taking-1-88);}.cls-4_note-taking-1-88{fill:url(#linear-gradient-13-note-taking-1-88);}.cls-5_note-taking-1-88{fill:url(#linear-gradient-10-note-taking-1-88);}.cls-6_note-taking-1-88{fill:url(#linear-gradient-15-note-taking-1-88);}.cls-7_note-taking-1-88{fill:url(#linear-gradient-14-note-taking-1-88);}.cls-8_note-taking-1-88{fill:url(#linear-gradient-4-note-taking-1-88);}.cls-9_note-taking-1-88{fill:url(#linear-gradient-2-note-taking-1-88);}.cls-10_note-taking-1-88{fill:url(#linear-gradient-3-note-taking-1-88);}.cls-11_note-taking-1-88{fill:url(#linear-gradient-8-note-taking-1-88);}.cls-12_note-taking-1-88{fill:url(#linear-gradient-9-note-taking-1-88);}.cls-13_note-taking-1-88{fill:url(#linear-gradient-7-note-taking-1-88);}.cls-14_note-taking-1-88{fill:url(#linear-gradient-5-note-taking-1-88);}.cls-15_note-taking-1-88{fill:url(#linear-gradient-6-note-taking-1-88);}.cls-16_note-taking-1-88{isolation:isolate;opacity:.24;}.cls-16_note-taking-1-88,.cls-19_note-taking-1-88{fill:#68e1fd;}.cls-17_note-taking-1-88{fill:#fff;}.cls-18_note-taking-1-88{fill:#ffb4a3;}</style>
    <linearGradient
       id="linear-gradient-note-taking-1-88"
       x1="655.14"
       y1="2557.34"
       x2="816.18"
       y2="3120.1"
       gradientTransform="translate(-471 3073.02) scale(1 -1)"
       gradientUnits="userSpaceOnUse">
      <stop
         offset="0"
         stop-color="#010101"
         stop-opacity="0"
         id="stop1" />
      <stop
         offset=".47"
         stop-color="#010101"
         stop-opacity=".47"
         id="stop2" />
      <stop
         offset=".95"
         stop-color="#010101"
         id="stop3" />
    </linearGradient>
    <linearGradient
       id="linear-gradient-2-note-taking-1-88"
       x1="691.29"
       y1="2714.55"
       x2="601.03"
       y2="2603.05"
       gradientTransform="translate(-492.29 3066.32) scale(1 -1)"
       gradientUnits="userSpaceOnUse">
      <stop
         offset="0"
         stop-color="#231f20"
         stop-opacity="0"
         id="stop4" />
      <stop
         offset="1"
         stop-color="#231f20"
         id="stop5" />
    </linearGradient>
    <linearGradient
       id="linear-gradient-3-note-taking-1-88"
       x1="664.44"
       y1="2912.91"
       x2="813.1"
       y2="2912.91"
       gradientTransform="matrix(1,0,0,-1,-471,3073.02)"
       xlink:href="#linear-gradient-2-note-taking-1-88" />
    <linearGradient
       id="linear-gradient-4-note-taking-1-88"
       x1="664.44"
       y1="2896.98"
       x2="813.1"
       y2="2896.98"
       gradientTransform="matrix(1,0,0,-1,-471,3073.02)"
       xlink:href="#linear-gradient-2-note-taking-1-88" />
    <linearGradient
       id="linear-gradient-5-note-taking-1-88"
       x1="664.44"
       y1="2881.06"
       x2="813.1"
       y2="2881.06"
       gradientTransform="matrix(1,0,0,-1,-471,3073.02)"
       xlink:href="#linear-gradient-2-note-taking-1-88" />
    <linearGradient
       id="linear-gradient-6-note-taking-1-88"
       x1="664.44"
       y1="2865.13"
       x2="813.1"
       y2="2865.13"
       gradientTransform="matrix(1,0,0,-1,-471,3073.02)"
       xlink:href="#linear-gradient-2-note-taking-1-88" />
    <linearGradient
       id="linear-gradient-7-note-taking-1-88"
       x1="664.44"
       y1="2849.2"
       x2="813.1"
       y2="2849.2"
       gradientTransform="matrix(0.86212009,0,0,-1,-379.38569,3073.02)"
       xlink:href="#linear-gradient-2-note-taking-1-88" />
    <linearGradient
       id="linear-gradient-8-note-taking-1-88"
       x1="690.51"
       y1="2983.97"
       x2="783.87"
       y2="2975.56"
       gradientTransform="translate(-492.29 3066.32) scale(1 -1)"
       xlink:href="#linear-gradient-note-taking-1-88" />
    <linearGradient
       id="linear-gradient-9-note-taking-1-88"
       x1="760.36"
       y1="3028.7"
       x2="755.07"
       y2="2944.16"
       gradientTransform="translate(-492.29 3066.32) scale(1 -1)"
       gradientUnits="userSpaceOnUse">
      <stop
         offset="0"
         stop-color="#fff"
         stop-opacity="0"
         id="stop6" />
      <stop
         offset=".95"
         stop-color="#fff"
         id="stop7" />
    </linearGradient>
    <linearGradient
       id="linear-gradient-10-note-taking-1-88"
       x1="631.77"
       y1="2777.41"
       x2="678.5"
       y2="2777.41"
       xlink:href="#linear-gradient-2-note-taking-1-88" />
    <linearGradient
       id="linear-gradient-11-note-taking-1-88"
       x1="608.04"
       y1="2852.94"
       x2="824.03"
       y2="2758.45"
       xlink:href="#linear-gradient-2-note-taking-1-88" />
    <linearGradient
       id="linear-gradient-12-note-taking-1-88"
       x1="841.5"
       y1="2805.4"
       x2="964.79"
       y2="2902.14"
       gradientTransform="translate(-492.29 3066.32) scale(1 -1)"
       xlink:href="#linear-gradient-note-taking-1-88" />
    <linearGradient
       id="linear-gradient-13-note-taking-1-88"
       x1="818.11"
       y1="2735.15"
       x2="1043.75"
       y2="2857.26"
       gradientTransform="translate(-492.29 3066.32) scale(1 -1)"
       xlink:href="#linear-gradient-note-taking-1-88" />
    <linearGradient
       id="linear-gradient-14-note-taking-1-88"
       x1="893.13"
       y1="2776.8"
       x2="780.97"
       y2="2756.42"
       gradientTransform="translate(-492.29 3066.32) scale(1 -1)"
       xlink:href="#linear-gradient-note-taking-1-88" />
    <linearGradient
       id="linear-gradient-15-note-taking-1-88"
       x1="868.55"
       y1="2814.04"
       x2="851.46"
       y2="2794.6"
       xlink:href="#linear-gradient-9-note-taking-1-88" />
    <linearGradient
       inkscape:collect="always"
       xlink:href="#linear-gradient-2-note-taking-1-88"
       id="linearGradient29"
       gradientUnits="userSpaceOnUse"
       gradientTransform="matrix(1,0,0,-1,-492.29,3066.32)"
       x1="691.29"
       y1="2714.55"
       x2="601.03"
       y2="2603.05" />
    <linearGradient
       inkscape:collect="always"
       xlink:href="#linear-gradient-2-note-taking-1-88"
       id="linearGradient32"
       gradientTransform="matrix(1,0,0,-1,-471,3057.02)"
       x1="664.44"
       y1="2912.91"
       x2="813.1"
       y2="2912.91" />
  </defs>
  <g
     id="background_note-taking-1-88">
    <path
       class="cls-16_note-taking-1-88 targetColor"
       d="M449.22,406.53c-5.51,4.05-11.54,7.35-17.91,9.83-11.03,4.28-22.79,6.19-34.11,9.49-5.03,1.45-9.96,3.2-14.8,5.12-29.31,11.54-56.21,29.84-87.04,36.52-57.14,12.47-112.36-15.88-166.97-27.91-46.79-10.28-84.82,14.3-103.71-60.06-7.9-30.95-17.67-63.73-5.72-93.43,11.95-29.7,28.78-57.14,40.18-86.99,16.28-42.63,22.3-91.75,54.33-124.29,22.18-22.53,53.88-33.4,85.29-37.26,31.4-3.86,63.2-1.38,94.82-1.25,38.08.12,78.65-2.55,111.59,16.62,23.5,13.89,39.85,37.27,44.85,64.11,6.54,36.62-8.99,74.58-2.01,111.13,6.48,34.03,31.77,62.51,36.71,96.82,4.48,30.89-10.41,63.29-35.49,81.55Z"
       style="fill: rgb(104, 225, 253);"
       id="path7" />
  </g>
  <g
     id="clipboard_note-taking-1-88"
     transform="translate(0,-8)">
    <path
       class="cls-19_note-taking-1-88 targetColor"
       d="m 387.18,99.55 v 300.97 c 0.01,15.92 -12.89,28.84 -28.82,28.85 H 168.28 c -15.92,0 -28.82,-12.91 -28.82,-28.83 0,0 0,-0.01 0,-0.02 V 99.55 c 0,-15.91 12.9,-28.82 28.82,-28.82 h 190.08 c 15.91,0.01 28.8,12.91 28.82,28.82 z"
       style="fill:#68e1fd"
       id="path8" />
    <rect
       class="cls-1_note-taking-1-88"
       x="160.41"
       y="96.410004"
       width="201.16"
       height="301.44"
       id="rect8" />
    <path
       class="cls-17_note-taking-1-88"
       d="M 364.49,94.02 V 394.59 H 188.53 c 0,0 -24.39,-5.13 -25.68,-46.23 -1.29,-41.1 1.29,-254.34 1.29,-254.34 h 200.34 z"
       id="path9" />
    <path
       class="cls-17_note-taking-1-88"
       d="m 203.47,394.3 c -0.12,0.09 -0.24,0.19 -0.35,0.29 h -14.59 c 0,0 -24.39,-5.13 -25.68,-46.23 0,0 8.77,27.66 38.84,21.74 0,0 -15.93,25.97 1.77,24.2 z"
       id="path10" />
    <path
       class="cls-9_note-taking-1-88"
       d="m 203.47,394.3 c -0.12,0.09 -0.24,0.19 -0.35,0.29 h -14.59 c 0,0 -24.39,-5.13 -25.68,-46.23 0,0 8.77,27.66 38.84,21.74 0,0 -15.93,25.97 1.77,24.2 z"
       id="path11"
       style="fill:url(#linearGradient29)" />
    <path
       class="cls-10_note-taking-1-88"
       d="m 196.1,157.46 h 143.35 c 1.47,0 2.65,1.19 2.65,2.65 v 0 c 0,1.47 -1.19,2.65 -2.65,2.65 H 196.1 c -1.47,0 -2.65,-1.19 -2.65,-2.65 v 0 c 0,-1.47 1.19,-2.65 2.65,-2.65 z"
       id="path12"
       style="fill:url(#linear-gradient-3-note-taking-1-88)" />
    <path
       class="cls-8_note-taking-1-88"
       d="m 196.1,173.39 h 143.35 c 1.47,0 2.65,1.19 2.65,2.65 v 0 c 0,1.47 -1.19,2.65 -2.65,2.65 H 196.1 c -1.47,0 -2.65,-1.19 -2.65,-2.65 v 0 c 0,-1.47 1.19,-2.65 2.65,-2.65 z"
       id="path13"
       style="fill:url(#linear-gradient-4-note-taking-1-88)" />
    <path
       class="cls-14_note-taking-1-88"
       d="m 196.1,189.31 h 143.35 c 1.47,0 2.65,1.19 2.65,2.65 v 0 c 0,1.47 -1.19,2.65 -2.65,2.65 H 196.1 c -1.47,0 -2.65,-1.19 -2.65,-2.65 v 0 c 0,-1.47 1.19,-2.65 2.65,-2.65 z"
       id="path14"
       style="fill:url(#linear-gradient-5-note-taking-1-88)" />
    <path
       class="cls-15_note-taking-1-88"
       d="m 196.1,205.24 h 143.35 c 1.47,0 2.65,1.19 2.65,2.65 v 0 c 0,1.47 -1.19,2.65 -2.65,2.65 H 196.1 c -1.47,0 -2.65,-1.19 -2.65,-2.65 v 0 c 0,-1.47 1.19,-2.65 2.65,-2.65 z"
       id="path15"
       style="fill:url(#linear-gradient-6-note-taking-1-88)" />
    <path
       class="cls-13_note-taking-1-88"
       d="m 195.73462,221.17 h 123.58491 c 1.26732,0 2.28462,1.19 2.28462,2.65 v 0 c 0,1.47 -1.02592,2.65 -2.28462,2.65 H 195.73462 c -1.26732,0 -2.28462,-1.19 -2.28462,-2.65 v 0 c 0,-1.47 1.02592,-2.65 2.28462,-2.65 z"
       id="path16"
       style="fill:url(#linear-gradient-7-note-taking-1-88)" />
    <path
       class="cls-10_note-taking-1-88"
       d="m 196.1,141.46 h 143.35 c 1.47,0 2.65,1.19 2.65,2.65 v 0 c 0,1.47 -1.19,2.65 -2.65,2.65 H 196.1 c -1.47,0 -2.65,-1.19 -2.65,-2.65 v 0 c 0,-1.47 1.19,-2.65 2.65,-2.65 z"
       id="path30"
       style="fill:url(#linearGradient32)" />
  </g>
  <g
     id="hands_note-taking-1-88">
    <path
       class="cls-5_note-taking-1-88"
       d="M186.21,272.6c-5.72,14.02-18.14,23.5-28.88,33.52-5.53,5.16-9.8,10.91-14.73,16.5-.9.97-1.95,1.77-3.11,2.39v-57.26c1.53-4.86,2.51-9.87,2.92-14.95,1.87,6.16,1.03,13.67,5.77,18.04,3.06,2.86,7.55,3.36,11.73,3.55,8.81.36,17.63-.25,26.3-1.8Z"
       id="path17" />
    <path
       class="cls-18_note-taking-1-88"
       d="M181.9,278.62c-14.3,15.97-36.44,23.79-49.24,40.98-11.44,15.3-13.58,35.38-19.36,53.61-6.41,20.21-17.47,38.56-28.47,56.7-1.45,2.38-3.06,4.9-5.66,5.93-2.26.93-4.8.48-7.17,0-17.82-3.74-37.33-13.14-41.33-30.92-2.55-11.38,2.12-23.13,7.64-33.4,19.16-35.79,49.37-65.46,64.04-103.33,9.59-24.73,14.52-52.77,38.07-68.45-.02.16-.02.32,0,.48-1.16,9.8.93,30.95-.63,46.01-.05.55-.01,1.1.09,1.64h0c.66,3.02,3.27,6.82,4.47,9.11,3.64,6.82,13.7,5.32,21.02,2.8,7.33-2.51,17.31-4.19,21.09,2.61,2.85,5.24-.57,11.74-4.57,16.24Z"
       id="path18" />
    <path
       class="cls-2_note-taking-1-88"
       d="M139.76,246.23c-.05.55-.01,1.1.09,1.64-1.79-1.2-3.83-5.09-5.61-9.77-1.09-2.87-3.86-16.72-3.86-19.8,0-7.07,4.87-12.99,9.99-18.07-1.15,9.8.93,30.95-.62,46.01Z"
       id="path19" />
    <path
       class="cls-18_note-taking-1-88"
       d="M353.44,256.65c1.19,4.12,1.31,8.7,3.74,12.22,3.32,4.75,9.84,6.01,15.63,5.7.76,0,1.52-.15,2.23-.42.8-.42,1.48-1.03,1.98-1.78,3.56-4.78,3.49-11.46,1.74-17.15-2.44-7.81-7.59-14.48-14.53-18.81-3.79-2.35-20.22-9.25-21.99-2.8-1.49,5.55,9.58,17.43,11.19,23.04Z"
       id="path20" />
    <path
       class="cls-3_note-taking-1-88"
       d="M353.44,256.65c1.19,4.12,1.31,8.7,3.74,12.22,3.32,4.75,9.84,6.01,15.63,5.7.76,0,1.52-.15,2.23-.42.8-.42,1.48-1.03,1.98-1.78,3.56-4.78,3.49-11.46,1.74-17.15-2.44-7.81-7.59-14.48-14.53-18.81-3.79-2.35-20.22-9.25-21.99-2.8-1.49,5.55,9.58,17.43,11.19,23.04Z"
       id="path21" />
    <path
       class="cls-4_note-taking-1-88"
       d="M360.1,426.98c-.64-29.43-1.37-59.5-11.46-87.17-5.73-15.73-14.37-30.35-19.04-46.42-3.68-12.66-2.8-26.11-2.69-39.3.06-6.99.1-14.13-2.06-20.77-1.87-5.8-5.45-11.12-6.22-17.17,8.17,5.95,16.82,12.57,19.78,22.23,1.44,4.67,1.38,9.7,2.16,14.54,2.5,15.66,13.42,28.41,21.19,42.23,17.08,30.38,19.21,66.73,19.04,101.58,0,7.55-.22,15.39-3.54,22.18-3.32,6.79-9.72,9.43-17.15,8.06Z"
       id="path22" />
    <path
       class="cls-18_note-taking-1-88"
       d="M449.22,406.53c-5.51,4.05-11.54,7.35-17.91,9.83-11.03,4.28-22.79,6.19-34.11,9.49-5.03,1.45-9.96,3.2-14.8,5.12-5.81-44.28-17.22-88.31-38.97-127.07-5.65-10.12-9.96-18.55-13.67-29.54-3.71-11-1.87-40.7,1.76-41.26,6.17-1.01,10.16,6.19,12.15,12.1,3.34,9.64,6.35,18.47,15.4,24.29,3.87,2.51,9.21,4.06,12.88,1.25,1.82-1.57,3.03-3.72,3.43-6.09,1.64-7.58-1.7-15.65-7.26-21.06-5.56-5.41-13.02-8.41-20.56-10.08-4.34-.93-9.03-1.57-12.32-4.53-2.63-2.38-3.95-6.62-2.01-9.58,1.73-2.64,12.01,3.36,15.09,2.92,6.81-.93,7.16-2.29,14.02-2.22,6.86.07,13.92.69,20.3,3.33,6.54,2.8,12.1,7.54,17.29,12.47,8.04,7.67,15.27,10,22.25,18.69,4.4,5.5,8.64,11.28,11,17.95,4.21,11.94,1.79,25.08.57,37.71-3.06,32.14,1.96,64.54,14.61,94.25.24.66.6,1.35.88,2.05Z"
       id="path23" />
    <path
       class="cls-7_note-taking-1-88"
       d="M377.12,288.62c5.61,9.41,12.63,17.86,19.62,26.26,1.96,2.35,5.15,4.93,7.71,3.24,1.95-1.3,1.87-4.17,1.38-6.46-2.08-9.75-7.47-18.56-14.12-26.02-6.64-7.47-14.47-13.72-22.27-19.94.27.21-2.76,4.42-1.49,6.67,2.15,3.72,6.91,12.45,9.17,16.25Z"
       id="path24" />
    <path
       class="cls-19_note-taking-1-88 targetColor"
       d="M319.76,219.83s55.08,59.07,66.34,70.8c11.26,11.73,20.56,20.35,20.56,20.35,0,0,11.06,1.1,11.5-2.65.44-3.76-83.84-85.61-92.25-89.59l-8.41-3.98,2.26,5.08Z"
       style="fill: rgb(104, 225, 253);"
       id="path25" />
    <path
       class="cls-6_note-taking-1-88"
       d="M418.2,308.33c-.21,1.87-3.07,2.54-5.88,2.73-1.87.11-3.74.08-5.61-.09,0,0-9.3-8.61-20.56-20.33s-66.34-70.8-66.34-70.8l-2.21-5.09,8.41,4c8.33,3.99,92.66,85.82,92.17,89.59Z"
       id="path26" />
    <path
       class="cls-19_note-taking-1-88 targetColor"
       d="M413.33,310.52l-1.01.53c-1.87.11-3.74.08-5.61-.09,0,0-9.3-8.61-20.56-20.33s-66.34-70.8-66.34-70.8l-2.21-5.09,95.71,95.79Z"
       style="fill: rgb(104, 225, 253);"
       id="path27" />
    <path
       class="cls-17_note-taking-1-88"
       d="M400.2,301.21c-.64,1.24-1.6,2.89-2.93,2.48-.35-.13-.67-.33-.93-.59l-20.85-17.94c-.4,3.22,2.51,5.76,5.04,7.81,4.64,3.73,8.93,7.88,12.83,12.38,1.09,1.26,2.24,2.62,3.84,3.14s3.74-.24,3.99-1.87c0-.34.08-.68.21-1,.19-.25.44-.45.74-.56l3.38-1.65c1.32-.55,2.52-1.33,3.57-2.31,1.05-1,1.5-2.48,1.18-3.9-1.63-5.39-8.93,1.8-10.06,4.01Z"
       id="path28" />
    <path
       class="cls-17_note-taking-1-88"
       d="M412.31,312.26c1.55,1.46,3.38,2.86,5.51,2.95.77.08,1.54-.2,2.08-.76.43-.63.49-1.45.17-2.14-.33-.68-.77-1.3-1.32-1.82l-2.16-2.35c-.7-.94-1.68-1.64-2.8-2-1.26-.22-4.17.74-4.43,2.21-.26,1.48,2.1,3.06,2.94,3.91Z"
       id="path29" />
  </g>
</svg>
